<?xml version="1.0" encoding="utf-8"?>
<!-- Generated by IcoMoon.io -->
<!DOCTYPE svg PUBLIC "-//W3C//DTD SVG 1.1//EN" "http://www.w3.org/Graphics/SVG/1.1/DTD/svg11.dtd">
<svg version="1.1" xmlns="http://www.w3.org/2000/svg" xmlns:xlink="http://www.w3.org/1999/xlink" width="512" height="512" viewBox="0 0 512 512"><g id="icomoon-ignore">
</g>
<path d="M491.623 401.622c-0.002-0.002-0.003-0.003-0.005-0.005l-145.614-145.618 145.615-145.617c0.002-0.002 0.003-0.003 0.005-0.004 1.567-1.569 2.7-3.401 3.428-5.351 1.99-5.332 0.855-11.57-3.433-15.858l-68.787-68.787c-4.288-4.287-10.524-5.421-15.857-3.431-1.95 0.727-3.783 1.861-5.352 3.427 0 0.002-0.002 0.003-0.003 0.003l-145.617 145.618-145.617-145.617c-0.002-0.002-0.003-0.003-0.004-0.003-1.569-1.567-3.401-2.701-5.35-3.427-5.335-1.992-11.57-0.856-15.858 3.431l-68.788 68.787c-4.288 4.287-5.422 10.525-3.432 15.857 0.727 1.951 1.861 3.784 3.427 5.351 0.002 0.001 0.003 0.003 0.003 0.004l145.617 145.617-145.617 145.618c-0.001 0.002-0.003 0.003-0.003 0.005-1.567 1.568-2.701 3.4-3.428 5.351-1.992 5.332-0.856 11.57 3.432 15.858l68.787 68.787c4.289 4.288 10.525 5.423 15.858 3.432 1.951-0.728 3.783-1.861 5.351-3.428 0.001-0.002 0.003-0.003 0.004-0.005l145.617-145.618 145.616 145.617c0.002 0.001 0.003 0.003 0.005 0.005 1.57 1.567 3.401 2.7 5.351 3.428 5.334 1.99 11.57 0.856 15.857-3.432l68.787-68.788c4.288-4.288 5.423-10.526 3.433-15.858-0.728-1.95-1.861-3.782-3.428-5.351z"></path>
</svg>
