<svg baseProfile="tiny" xmlns="http://www.w3.org/2000/svg" viewBox="0 0 200 200"><path fill="#FDB051" d="M188.59 156.76l-76.34 41.73c-5.53 3.02-12.34 3.02-17.87 0l-76.34-41.73c-5.53-3.02-8.94-8.61-8.94-14.65v-83.46c0-6.05 3.41-11.63 8.94-14.65l76.34-41.73c5.53-3.02 12.34-3.02 17.87 0l76.34 41.73c5.53 3.02 8.94 8.61 8.94 14.65v83.46c-.01 6.04-3.41 11.63-8.94 14.65z"/><path fill="#9D9E9E" d="M127.09 71.2c.43.67.83 1.29 1.22 1.98 5.46 9.77 6.13 21.22 2.64 31.61-2.98 8.89-8.99 16.99-17.64 22.64l-45.51 29.75c-19.4 12.68-44.75 8.08-56.55-10.27s-5.62-43.56 13.78-56.24l23.87-15.6c-3.48 10.39-2.82 21.84 2.64 31.61l-11.42 7.46c-5.71 3.73-7.53 11.14-4.05 16.54 3.47 5.4 10.92 6.75 16.63 3.02l45.51-29.74c5.01-3.27 7.02-9.37 5.11-14.45-.28-.71-.62-1.43-1.05-2.09-3.47-5.4-10.92-6.75-16.63-3.02l-9.1 5.95c-1.92-5.08.1-11.18 5.11-14.45l28.8-18.82c6.65 2.87 12.49 7.66 16.64 14.12z"/><path fill="#404041" d="M44.06 167.15c-14.47 0-27.62-7-35.16-18.72-12.63-19.63-6.07-46.6 14.61-60.12l23.88-15.6c.98-.65 2.28-.6 3.22.14.94.73 1.31 1.99.93 3.11-3.33 9.93-2.44 20.61 2.43 29.34.72 1.29.32 2.93-.91 3.73l-11.42 7.46c-4.42 2.88-5.86 8.57-3.23 12.66 2.52 3.94 8.51 4.98 12.78 2.19l45.51-29.74c3.81-2.49 5.5-7.16 4.01-11.09-.2-.5-.46-1.06-.78-1.57-2.52-3.93-8.5-4.98-12.78-2.18l-9.11 5.94c-.7.46-1.57.58-2.38.31-.8-.26-1.44-.88-1.74-1.67-2.42-6.39.18-13.88 6.18-17.8l28.8-18.82c.79-.5 1.77-.58 2.61-.22 7.37 3.17 13.56 8.42 17.9 15.17.5.77.91 1.43 1.31 2.14 5.64 10.09 6.69 22.44 2.85 33.88-3.27 9.77-9.94 18.33-18.76 24.1l-45.51 29.74c-7.61 4.99-16.34 7.62-25.24 7.62zm.46-85.87l-17.98 11.74c-18.1 11.83-23.92 35.32-12.96 52.36 6.51 10.11 17.9 16.15 30.48 16.15 7.82 0 15.5-2.32 22.23-6.71l45.51-29.74c7.78-5.08 13.64-12.61 16.52-21.18 3.33-9.93 2.44-20.62-2.43-29.34-.35-.62-.7-1.17-1.08-1.75-3.52-5.47-8.37-9.76-14.13-12.54l-27.53 17.99c-2.65 1.73-4.28 4.52-4.52 7.38l5.49-3.59c6.78-4.41 16.34-2.6 20.49 3.85.53.82.96 1.71 1.3 2.58 2.42 6.43-.18 13.91-6.17 17.83l-45.51 29.75c-6.78 4.42-16.33 2.6-20.49-3.85-4.3-6.7-2.11-15.86 4.87-20.43l9.3-6.08c-3.56-7.5-4.72-16.03-3.39-24.42z"/><path fill="#7C7D7D" d="M168.61 32.96c11.8 18.35 5.62 43.56-13.78 56.24l-23.87 15.6c3.48-10.39 2.82-21.84-2.64-31.61l11.42-7.46c5.71-3.73 7.53-11.14 4.05-16.54s-10.92-6.75-16.63-3.02l-45.52 29.73c-5.01 3.27-7.02 9.37-5.11 14.45.28.71.62 1.43 1.05 2.09 3.47 5.4 10.92 6.75 16.63 3.02l9.1-5.95c1.92 5.08-.1 11.18-5.11 14.45l-28.8 18.82c-6.66-2.87-12.51-7.66-16.66-14.12-.43-.67-.83-1.29-1.22-1.98-5.46-9.77-6.13-21.22-2.64-31.61 2.98-8.89 9.04-17.02 17.64-22.64l45.51-29.74c19.43-12.69 44.78-8.08 56.58 10.27z"/><path fill="#323333" d="M69.42 125.59c-.37 0-.75-.08-1.09-.22-7.37-3.17-13.56-8.42-17.91-15.17-.46-.71-.89-1.39-1.31-2.14-5.64-10.1-6.68-22.45-2.84-33.88 3.27-9.77 9.93-18.33 18.76-24.1l45.52-29.74c7.62-4.98 16.35-7.61 25.25-7.61 14.47 0 27.62 6.99 35.16 18.71 12.63 19.64 6.07 46.6-14.61 60.13l-23.88 15.6c-.98.64-2.28.6-3.22-.14-.94-.73-1.31-1.98-.93-3.11 3.33-9.93 2.44-20.62-2.43-29.34-.72-1.29-.32-2.93.91-3.73l11.42-7.46c4.41-2.88 5.86-8.57 3.23-12.66-2.52-3.93-8.51-4.98-12.78-2.19l-45.52 29.72c-3.81 2.49-5.5 7.16-4.02 11.09.2.5.46 1.06.79 1.57 2.52 3.93 8.51 4.99 12.78 2.19l9.1-5.95c.71-.46 1.58-.58 2.38-.31.8.27 1.44.88 1.74 1.67 2.4 6.39-.2 13.88-6.19 17.8l-28.8 18.82c-.46.3-.98.45-1.51.45zm66.37-107.26c-7.82 0-15.5 2.32-22.22 6.71l-45.52 29.74c-7.78 5.08-13.64 12.61-16.51 21.18-3.33 9.93-2.44 20.61 2.43 29.34.36.65.73 1.22 1.13 1.83 3.48 5.41 8.33 9.69 14.09 12.46l27.51-17.99c2.65-1.73 4.28-4.51 4.52-7.37l-5.48 3.59c-6.78 4.41-16.34 2.6-20.49-3.85-.53-.83-.96-1.72-1.3-2.59-2.43-6.42.17-13.91 6.17-17.83l45.51-29.75c6.78-4.42 16.34-2.6 20.49 3.85 4.3 6.7 2.11 15.86-4.87 20.43l-9.3 6.08c3.55 7.5 4.72 16.03 3.38 24.43l17.98-11.75c18.1-11.83 23.91-35.32 12.96-52.36-6.51-10.11-17.9-16.15-30.48-16.15z"/><circle fill="#404041" cx="143.56" cy="149.01" r="39.53"/><path fill="#231F20" d="M143.56 191.49c-23.42 0-42.48-19.06-42.48-42.48s19.06-42.48 42.48-42.48 42.48 19.06 42.48 42.48-19.06 42.48-42.48 42.48zm0-79.06c-20.17 0-36.58 16.41-36.58 36.58 0 20.17 16.41 36.58 36.58 36.58s36.58-16.41 36.58-36.58c-.01-20.17-16.42-36.58-36.58-36.58z"/><path fill="#fff" d="M135.35 138.28c.09-2.63 1.3-3.88 3.93-3.88h11.91c2.98 0 3.49 2.07 3.49 3.11s-.51 3.11-3.49 3.11h-9.23l-.25 4.83c.9-.21 2.16-.3 3.06-.3 6.13 0 11.04 3.27 11.04 9.71 0 7.42-5.78 10.91-11.78 10.91-3.71 0-7.08-1.38-9.06-3.45-.69-.73-1.21-1.76-1.21-2.76 0-1.85 1.47-3.23 3.37-3.23.86 0 1.6.22 2.93 1.64.95.99 2.29 1.68 3.88 1.68 2.46 0 4.57-1.51 4.57-4.44 0-3.63-3.28-4.66-6.25-4.66-1.3 0-2.24.13-2.98.26-.65.13-1.12.22-1.64.22-.78 0-2.81-.31-2.67-3.15l.38-9.6z"/><path fill="#C2C3C4" d="M24.75 150.02c-.71 0-1.43-.26-1.99-.78-.21-.19-5.11-4.72-7.29-9.75-13.74-31.58 22.67-48.57 23.04-48.74 1.49-.66 3.23-.02 3.91 1.46.67 1.48.02 3.23-1.46 3.91-1.29.59-31.48 14.77-20.06 41.02 1.68 3.86 5.83 7.72 5.87 7.75 1.19 1.11 1.27 2.97.17 4.17-.6.64-1.39.96-2.19.96z"/><path fill="#9D9E9E" d="M65.56 109.99c-.71 0-1.43-.26-2-.78-.21-.19-5.1-4.73-7.28-9.75-13.74-31.57 22.66-48.57 23.03-48.73 1.49-.66 3.23-.02 3.91 1.46.67 1.48.02 3.23-1.46 3.91-1.29.59-31.49 14.77-20.08 41.02 1.68 3.86 5.83 7.72 5.87 7.76 1.2 1.1 1.27 2.97.17 4.17-.58.62-1.37.94-2.16.94z"/><circle fill="#C2C3C4" cx="35.45" cy="151.44" r="4.06"/><circle fill="#ADADAD" cx="91.52" cy="48.52" r="4.06"/><path fill="#fff" d="M105.59 7.91l2.77 22.96 21.99 2.9-21.99 2.9-2.77 22.96-2.78-22.96-21.99-2.9 21.99-2.9z"/><ellipse fill="#fff" cx="117.76" cy="19.45" rx="4.45" ry="4.41"/><ellipse fill="#fff" cx="92.28" cy="48.73" rx="4.45" ry="4.41"/></svg>