<svg baseProfile="tiny" xmlns="http://www.w3.org/2000/svg" viewBox="0 0 200 200"><path fill="#4B4E49" d="M192.82 115.29c-.24-.12-.82-.47-1.76-.76 5.29-4.24 9.12-11.06 8.24-20.94-.18-2.18-1.59-4.06-3.65-4.88-.24-.12-.65-.24-1.24-.41 3-4.35 5.12-10.94 2.76-20.41-.65-2.47-2.82-4.24-5.35-4.41h-.41c1.65-5.06 1.82-11.24-1.24-17.82-.82-1.88-2.59-3.12-4.53-3.35.12-4.53-1.06-9.94-5.18-15.41-1.06-1.47-2.76-2.29-4.53-2.35h-.18c-1.06 0-2.06.29-3 .76-3.06-5.65-7.76-9.41-13.59-10.53-.35-.12-.76-.12-1.12-.12-1.29 0-2.53.41-3.59 1.18-1.35 1-2.18 2.59-2.29 4.24-.06.41-.53 8.18 5.71 15.24-.88.59-1.59 1.41-2 2.41-.65 1.41-.71 3-.18 4.47.89 2.41 1.97 4.42 3.16 6.09-5.59.23-10.96 3.57-15.12 7.11.62-1.7.97-3.43 1.03-5.15 0-8.65-12.06-42.41-31.12-42.41-1.82 0-3.59.29-5.35.88-4.72 1.52-7.99 5.57-10.15 10.76-1.49-5.53-4.23-10.09-8.73-12.35-2.24-1.06-4.65-1.59-7.12-1.59-17.47 0-32.94 29.35-33.94 38.65-.3 2.79.17 5.7 1.34 8.56-2.75-2.03-5.65-3.59-8.6-4.42 1.2-1.69 2.29-3.7 3.19-6.14.53-1.47.47-3.06-.18-4.47-.41-1-1.12-1.82-2-2.41 6.24-7.06 5.76-14.82 5.71-15.24-.12-1.65-.94-3.24-2.29-4.24-1.06-.76-2.29-1.18-3.59-1.18-.35 0-.76 0-1.12.12-5.81 1.11-10.52 4.88-13.57 10.52-.94-.47-1.94-.76-3-.76h-.18c-1.76.06-3.47.88-4.53 2.35-4.12 5.47-5.29 10.88-5.18 15.41-1.94.24-3.71 1.47-4.53 3.35-3.06 6.59-2.88 12.76-1.24 17.82h-.4c-2.53.18-4.71 1.94-5.35 4.41-2.35 9.47-.24 16.06 2.76 20.41-.59.18-1 .29-1.24.41-2.06.82-3.47 2.71-3.65 4.88-.88 9.88 2.94 16.71 8.24 20.94-.94.29-1.53.65-1.76.76-2.12 1.18-3.29 3.59-2.94 6 .24 1.41.53 2.76.88 4v.06c1.35 4.94 3.71 8.59 6.47 11.18 2.18 2.06 4.59 3.41 7.18 4.29-1.35.82-2.24 1.53-2.41 1.71-1.94 1.76-2.47 4.65-1.35 7 5.94 12 15.06 13.82 19.94 13.82h.24c-.47.53-.82 1.18-1 1.82-.71 1.94-.29 4.12 1.18 5.76 6.82 7.76 13.88 9.35 18.59 9.35 1.47 0 2.88-.12 4.18-.41-.35.82-.76 1.71-1.12 2.65-.94 2.71.18 5.71 2.59 7.12.76.41 7.59 4.24 15.65 4.24 3.68 0 7.05-.82 10.02-2.38 4.33 1.9 9.12 2.96 14.16 2.96 5.29 0 10.29-1.17 14.8-3.25 3.1 1.74 6.66 2.66 10.56 2.66 8.06 0 14.88-3.82 15.65-4.24 2.41-1.41 3.53-4.41 2.59-7.12-.35-.94-.76-1.82-1.12-2.65 1.29.29 2.71.41 4.18.41 4.71 0 11.76-1.59 18.59-9.35 1.47-1.65 1.88-3.82 1.18-5.76-.18-.65-.53-1.29-1-1.82h.24c4.88 0 14-1.82 19.94-13.82 1.12-2.35.59-5.24-1.35-7-.18-.18-1.06-.88-2.41-1.71 2.59-.88 5-2.24 7.18-4.29 2.76-2.59 5.12-6.24 6.47-11.18v-.06c.35-1.24.65-2.59.88-4 .3-2.38-.88-4.79-3-5.97z"/><g fill="#6385A3"><path d="M193.41 94.12l-.18-.06s-.28-.08-.5-.12c-.31-.06-.72-.13-1.19-.16h-.04l-.51-.02c-.4 0-.83.03-1.28.1-.3.05-.61.12-.93.21-.32.1-.64.22-.97.37l-.49.25c-.16.09-.33.19-.49.3-.33.22-.66.47-.98.76-.49.44-.97.96-1.43 1.6-.31.42-.61.89-.89 1.41l.06-.73c.04-.48.09-.95.12-1.43v-.06c.05-.7.09-1.4.12-2.09l.01-.12c.07-1.47.1-2.93.1-4.34.35-.18.78-.42 1.26-.74.24-.16.49-.33.76-.53.39-.29.81-.63 1.22-1.01s.84-.81 1.26-1.29c.28-.32.55-.66.82-1.02l.39-.56.04-.07c.18-.27.35-.55.52-.84l.01-.01.11-.21.13-.25.23-.45.14-.31.21-.47.05-.15c.18-.44.35-.9.49-1.38.08-.27.15-.54.22-.82.14-.56.25-1.15.33-1.77.04-.31.08-.62.1-.94l.01-.19c.04-.59.07-1.19.06-1.82-.03-1.75-.28-3.68-.82-5.8h-.12c-.41 0-1.91.07-3.54 1.09-.18.11-.37.24-.55.38l-.07.05-.1.08-.41.35-.17.15c-.19.18-.37.36-.55.57-.4.46-.78 1-1.14 1.63-.53.95-1 2.11-1.36 3.52-.15-1.62-.32-3.21-.53-4.76-.21-1.56-.44-3.09-.71-4.59.19-.21.45-.5.75-.89l.23-.3c.24-.32.49-.69.75-1.1l.26-.43c.35-.59.7-1.26 1.03-2 .16-.37.32-.76.46-1.17l.21-.62.17-.64.13-.48.05-.2c.1-.46.19-.93.26-1.43.07-.49.12-1 .14-1.52.01-.26.02-.53.02-.8 0-.26-.01-.53-.02-.8v-.08c-.02-.46-.07-.94-.14-1.43l-.02-.22-.13-.76-.07-.33c-.15-.74-.36-1.49-.62-2.27l-.2-.57-.27-.7c-.13-.32-.27-.65-.43-.98 0 0-.29.07-.74.29l-.36.19c-.26.15-.54.33-.84.56-.15.12-.3.24-.46.39l-.46.46c-.26.28-.52.62-.76.99-.19.29-.38.59-.55.94-.13.26-.25.54-.36.84-.11.3-.22.62-.31.95s-.17.69-.24 1.07c-.07.38-.12.77-.16 1.19-.13-.53-.27-1.04-.42-1.55-.29-1.01-.6-1.96-.9-2.9-.15-.47-.3-.93-.45-1.38.37-.79.82-1.9 1.19-3.24.19-.67.35-1.4.48-2.18.13-.78.21-1.61.23-2.48.01-.44.01-.88-.01-1.34-.04-.91-.16-1.86-.36-2.83s-.5-1.98-.91-3c-.28-.7-.63-1.4-1.02-2.11-.18-.33-.36-.67-.57-1l-.17-.24c-.28-.45-.58-.89-.92-1.34 0 0-2.59 3.06-2.94 8.12-.38-.73-.75-1.36-1.11-1.88l-.35-.49c-.13-.17-.25-.32-.37-.45-.32-.37-.62-.65-.87-.82l-.05-.1-.01-.01c-.18-.79-.42-1.74-.76-2.75-.23-.68-.49-1.39-.8-2.11-.47-1.08-1.04-2.19-1.74-3.25-.19-.28-.38-.56-.59-.83l-.15-.21c-.14-.19-.3-.36-.45-.54-.41-.48-.83-.95-1.3-1.39-.65-.6-1.36-1.14-2.15-1.61s-1.64-.87-2.58-1.17c-.47-.15-.95-.28-1.46-.38 0 0-.76 9.88 10.76 15.88.05.18.12.38.19.58l.03.08.14.39.1.24.31.77.12.28.15.36.39.91.31.74.33.8.23.55c-.63-.49-1.26-.88-1.89-1.2-.31-.16-.62-.3-.92-.42-.61-.24-1.2-.42-1.77-.54-.85-.19-1.65-.25-2.36-.25-.44 0-.85.03-1.2.06-.36.04-.67.09-.93.14l-.34.08-.07.02-.4.11c.33.87.68 1.67 1.05 2.41s.77 1.41 1.18 2.03c.28.41.56.8.85 1.16.58.72 1.18 1.35 1.79 1.89s1.24.99 1.87 1.38c.31.19.63.36.94.52 1.09.55 2.17.89 3.16 1.1 1 .21 1.91.28 2.68.28h.06c.38 1.1.75 2.25 1.12 3.44.37 1.2.73 2.44 1.08 3.75.23.87.46 1.77.68 2.69-.32-.57-.65-1.09-.98-1.56-1.49-2.11-3.02-3.19-4.41-3.7l-.31-.1c3.07 3.87 5.14 8.32 6.17 13.15.36.09.7.16 1.01.21.26 1.71.49 3.5.65 5.36s.29 3.79.35 5.76c-.37-1.26-.8-2.33-1.27-3.26-.07 2.94-.47 5.96-1.26 9.02-.25 1-.55 1.97-.86 2.93l.01.01c.29.2.58.39.86.55.28.17.55.32.81.45.41.21.79.38 1.13.53l.28.12c-.04.82-.1 1.66-.17 2.5-.14 1.69-.34 3.42-.57 5.18-.12.88-.24 1.77-.37 2.67-.19-1.94-.58-3.53-1.11-4.82-.17-.43-.36-.83-.56-1.2-.51-.94-1.09-1.68-1.7-2.28-1.65 3.82-3.76 7.2-6.14 9.88.3 1.02.67 1.97 1.11 2.84.23.45.47.88.72 1.29 1.01 1.64 2.17 2.97 3.23 3.98.53.51 1.04.93 1.48 1.28.22.17.43.33.62.46-.21.91-.44 1.84-.7 2.78-.26.94-.54 1.9-.83 2.87-.24.76-.47 1.59-.76 2.41v.06l.12.35-.12-.35-.09.29-.09.29c-.29 1.24-.71 2.53-1.18 3.82.65-12-7.76-14.06-7.76-14.06-.18.39-.35.78-.51 1.17-2.99 7.34-1.73 13.03.39 16.96.12.22.24.44.37.65.23.39.47.77.72 1.12.24.35.49.69.74 1 .25.31.49.61.74.88l.36.4c.24.25.47.49.69.7l.62.58c-.15.28-.33.59-.54.94-.2.35-.43.73-.69 1.14-.64 1.04-1.44 2.27-2.4 3.64.87-.36 1.75-.4 2.51.11.75.53 1.01 1.4.95 2.39l.5-.73c.38-.57.74-1.16 1.1-1.75.71-1.18 1.39-2.4 2.04-3.67.12.03.32.06.6.08h.05l.44.02.56.01.62-.01.15-.01.7-.05.09-.01.7-.08.17-.02c.26-.04.53-.09.81-.15l.05-.01.08-.02c.58-.13 1.19-.29 1.82-.51l.23-.08.6-.23.24-.1c.54-.23 1.08-.51 1.61-.84l.09-.05.1-.07c.36-.22.71-.46 1.06-.73l.03-.02.58-.47c.19-.16.38-.34.57-.52l.56-.56.54-.61.04-.06c.31-.37.61-.77.9-1.2l.09-.12.24-.38.18-.28c.18-.3.36-.61.52-.93l.01-.02c.16-.31.32-.65.47-.99l.13-.29c.13-.29.25-.59.36-.9l.08-.21c.14-.37.27-.76.39-1.16l.04-.1.05-.2c.1-.33.19-.66.27-1.01l.06-.21.03-.14.17-.76.08-.39.21-1.19v-.03l-.19-.1-.11-.05-.15-.06-.51-.2-.17-.06-.21-.06-.08-.02-.29-.09-.15-.03c-.36-.09-.77-.16-1.22-.21l-.11-.01c-.28-.03-.57-.04-.87-.04-.54 0-1.12.05-1.73.18-.61.12-1.24.32-1.89.61-1.29.58-2.65 1.54-3.97 3.04l.53-1.59.12-.38.12-.38c.41-1.24.76-2.41 1.06-3.59.21-.71.41-1.41.6-2.12.19-.71.37-1.41.51-2.12l.61-.19c.23-.07.48-.16.74-.28h.06c.25-.1.52-.21.79-.33.28-.12.57-.26.86-.41.27-.13.54-.28.82-.44l.1-.05.15-.09c.21-.12.42-.25.63-.39l.17-.1.09-.06c.29-.19.58-.4.88-.62.32-.25.65-.51.96-.79l.15-.14.2-.18.36-.34c.23-.23.46-.48.69-.73.22-.25.45-.52.66-.8l.31-.43.18-.25.14-.2c.27-.4.52-.83.76-1.28.96-1.8 1.65-3.97 1.88-6.59.06-.66.09-1.34.08-2.05.01-.73-.03-1.47-.1-2.24zM41.94 20.53c-8.12 1.59-11.06 10-12 14.24l-.06.12c-.71.47-1.71 1.71-2.71 3.65-.35-5.06-2.94-8.12-2.94-8.12-6.35 8.47-3.53 16.59-2.06 19.76-.58 1.82-1.23 3.7-1.76 5.82-.59-6.71-5.24-7.88-5.24-7.88-4.43 9.61.06 16.66 2.07 19.1 1.08-5.4 3.5-10.16 7.14-13.93.26-.82.53-1.63.79-2.41h.06c.59 0 1.28-.05 2.02-.16l.16-.13.12-.12.18-.12c1.77-1.18 3.71-1.99 5.75-2.39 2-1.62 3.91-4.08 5.31-7.84 0 0-1.18-.41-2.94-.41-1.88 0-4.41.47-6.94 2.41 1.06-2.59 1.94-4.47 2.29-5.71 11.53-6 10.76-15.88 10.76-15.88zM27.21 123.01c-.01.49 0 .99.03 1.52-.47-1.29-.88-2.59-1.18-3.82l-.09-.29-.09-.29v-.06c-.29-.82-.53-1.65-.76-2.41l-.21-.71c-.5-1.69-.96-3.34-1.32-4.93 1.53-1.06 4.24-3.41 6.06-7l.36-.76c-1.27-.86-2.46-1.95-3.58-3.19-1.46-1.61-2.79-3.49-3.96-5.54-.58 1.34-1.02 3.01-1.23 5.09-.5-3.39-.89-6.66-1.08-9.79-1.49-3.54-2.56-7.27-3.1-10.74-.21-1.35-.33-2.68-.41-3.99-.04.37-.09.73-.12 1.11-1.88-7.53-7.06-7.82-7.88-7.82h-.12c-3.41 13.55 4.76 19.2 7.53 20.61 0 2.82.12 5.82.41 8.76-2.29-4.18-5.35-5-7.47-5-1.41 0-2.41.35-2.41.35-.63 6.95 1.59 11.44 4.36 14.32.62.64 1.26 1.2 1.91 1.69.97.74 1.94 1.32 2.84 1.77.3.15.59.29.86.41l.79.33h.06c.26.12.51.21.74.28l.61.19c.15.71.32 1.41.51 2.12l.6 2.12c.15.59.31 1.18.49 1.77s.37 1.2.57 1.82l.24.76.53 1.59c-2.65-3-5.41-3.82-7.59-3.82-.3 0-.59.01-.87.04-.55.05-1.05.15-1.48.26l-.59.17c-.36.12-.64.24-.83.32l-.3.15c.14.88.3 1.72.49 2.5.76 3.15 1.93 5.56 3.31 7.4.34.46.7.88 1.07 1.28.37.39.74.75 1.13 1.08.77.66 1.56 1.19 2.36 1.63l.6.31c.65.31 1.29.57 1.92.77s1.24.35 1.82.46c.29.06.57.1.85.14.82.11 1.56.15 2.17.15l.57-.01.47-.03c.28-.02.49-.05.6-.08.97 1.9 2.01 3.69 3.14 5.42.24.37.5.74.75 1.1-.13-1.31.18-2.49 1.17-3.05.58-.32 1.19-.33 1.81-.15-.85-1.23-1.58-2.35-2.17-3.31-.51-.82-.92-1.52-1.22-2.07l.62-.58c.22-.21.45-.45.69-.7l.36-.4c.24-.27.49-.57.74-.88.25-.31.5-.65.74-1s.49-.73.72-1.12c.66-1.11 1.25-2.38 1.7-3.81 1.22-3.87 1.34-8.88-1.45-14.98 0 0-7.68 1.89-7.79 12.54z"/></g><g fill="#97DCE6"><path d="M180.82 51.64l-.1.18.1-.18zM181.9 50.08c.17-.2.35-.38.53-.54-.15.14-.31.3-.46.46l-.07.08zM180.29 52.78c.13-.35.28-.67.43-.97l-.07.13c-.13.26-.25.54-.36.84zM181.2 51c-.13.2-.26.41-.38.64.12-.23.25-.44.38-.64zM181.9 50.08l-.16.19.16-.19zM181.2 51l.25-.35-.25.35zM181.74 50.27c-.1.12-.2.24-.29.38l.29-.38zM179.98 53.74c.09-.34.19-.65.31-.95-.23.6-.41 1.27-.55 2.02.07-.38.15-.74.24-1.07zM184.56 48.21l.27-.09-.27.09zM182.43 49.54c.15-.14.31-.27.46-.39.3-.23.59-.42.84-.56l.36-.19.47-.2c-.41.16-1.25.53-2.13 1.34zM179.59 56c.04-.42.09-.82.16-1.19-.07.37-.13.77-.16 1.19zM173.22 136.08c-.29-.02-.51-.05-.63-.08.12.03.32.06.6.08h.03zM187.66 94.53l.37-.17-.2.09-.17.08zM184.15 97.75l.36-.51-.08.11-.28.4zM184.51 97.24c.13-.17.25-.34.38-.49-.13.16-.26.32-.38.49zM183.53 98.76l.28-.47-.28.47zM185.37 96.22c.23-.24.47-.45.71-.65l-.22.18c-.17.15-.33.31-.49.47zM187.9 70.39l.22-.12-.22.12zM188.12 70.27l.47-.25-.47.25zM187.81 70.44c-.2.13-.41.27-.62.43.24-.18.47-.34.71-.48l-.09.05zM189.47 69.68c.2-.06.39-.12.57-.16-.18.04-.37.09-.57.16zM188.83 69.92c.15-.07.3-.12.45-.17-.15.04-.3.1-.45.17zM189.28 69.74l.19-.07-.19.07zM188.6 70.02l.23-.1-.23.1zM181.93 120.43l.58-.27-.24.09-.34.18zM182.51 120.16c.24-.1.48-.2.71-.27-.23.07-.47.17-.71.27zM161.7 39.99l-.41.11.35-.1.06-.01zM171.12 42.12l-.23-.55.23.55zM179.09 146.47l-.42-.28-.29-.18c-.28-.17-.59-.34-.94-.51-.18-.09-.38-.18-.58-.26l-.46-.19c-.26-.1-.54-.19-.83-.28l-.37-.1c-.85-.22-1.81-.37-2.84-.37-1 0-2.07.13-3.2.46.38-.11.75-.2 1.12-.26-.37.07-.74.16-1.12.26l-.03.01c-.36.11-.73.23-1.11.38.37-.15.74-.27 1.1-.37-.36.11-.73.23-1.11.38.54-.96.9-2.03.96-2.99.06-.99-.2-1.86-.95-2.39-.75-.52-1.64-.47-2.51-.11-1.29.54-2.56 1.79-3.36 3.05.29-1.77.32-3.4.17-4.85-.16-1.5-.5-2.82-.93-3.97l-.17-.42c-.24-.59-.5-1.15-.76-1.64-.33-.6-.66-1.13-.97-1.57-.16-.22-.3-.42-.44-.59-.56-.71-.96-1.07-.96-1.07-.9.99-1.66 1.98-2.32 2.97-.05.57-.11 1.14-.19 1.69l-.01.1c-.56 3.68-1.73 7.02-3.32 10.04.09 3.83 1.23 7.12 2.26 9.31-2.59 2.47-5.65 5.06-9 7.47 3-4.5 3.41-8.79 3.28-11.47-3.91 5-8.92 8.82-13.74 11.51-.17.61-.31 1.21-.43 1.8-.26 1.29-.4 2.49-.47 3.56-.03.53-.05 1.03-.06 1.48l-.28.13c-3.22 1.59-6.71 3.02-10.49 4.22 2-1.16 5.21-3.73 6.46-8.63-2.5 1.04-4.79 1.74-6.63 2.1-1.18.24-2.35.35-3.59.35-2.31 0-4.51-.42-6.64-1.04-2.29 2.48-4.06 5.85-4.65 10.45l-1.78.22c-.31.03-.62.05-.93.07v.03c-.52.05-1.59.2-2.94.59-.68.2-1.44.46-2.24.8l-.5.22-.21-.1c-.79-.36-1.54-.63-2.24-.84-1.27-.39-2.31-.57-2.94-.64v-.06c-.88-.06-1.76-.12-2.71-.29-.93-7.3-4.85-11.53-9.12-13.98-3.59.93-7.35 1.8-11.41 1.8-.36 0-.71-.02-1.06-.03 1.18 5.12 4.48 7.79 6.53 8.98-3.88-1.24-7.47-2.71-10.76-4.35-.02-1.42-.15-3.26-.57-5.29-.26-.06-.52-.11-.78-.18l-.39-.12c-4.2-1.23-8.56-3.97-12.46-7.65.47 1.96 1.31 4.13 2.79 6.36-3.35-2.41-6.41-5-9-7.47.52-1.1 1.06-2.49 1.49-4.07-3.72-4.78-6.59-10.38-7.84-16.05-.19.41-.38.83-.55 1.29-.43 1.15-.77 2.47-.93 3.97-.16 1.47-.13 3.1.17 4.89-.8-1.49-2.18-2.99-3.59-3.41-.61-.18-1.23-.17-1.81.15-.99.56-1.3 1.74-1.17 3.05.08.87.36 1.8.76 2.65-1.59-.63-3.07-.87-4.41-.87-4.41 0-7.35 2.65-7.35 2.65 4.18 8.47 10 10.53 14.65 10.53 3.53 0 6.35-1.18 7.35-1.65 2.94 2.82 5.88 5.29 8.94 7.47-.29-.06-.59-.06-.88-.06-.47-.12-.88-.12-1.29-.12-6.06.06-9.29 3.94-9.29 3.94 5 5.65 9.94 7.35 14.18 7.35 4.82 0 8.65-2.29 10.12-3.41.86.41 1.7.79 2.54 1.17 2.9 1.29 5.7 2.39 8.34 3.3-.24-.06-.53-.06-.82-.06-1.38 0-3.33.27-5.32 1.31-2.35 1.23-4.74 3.54-6.26 7.81 0 0 6 3.47 12.71 3.47 1.11 0 2.24-.1 3.37-.32 4.04-.79 8-3.19 10.81-8.62 1.23.22 2.25.37 3.05.47l.01.06c.93.01 1.78.12 2.56.31-.77.75-1.5 1.62-2.18 2.62-.95 1.41-1.77 3.09-2.38 5.08l-.18.58s1.88 1.88 6.24 1.18c0 0 .59-3.82 3.32-6.69 2.74 2.86 3.32 6.69 3.32 6.69 4.35.71 6.24-1.18 6.24-1.18-.1-.36-.21-.7-.32-1.03-.59-1.78-1.35-3.29-2.23-4.59-.68-1.01-1.42-1.89-2.2-2.65.37-.09.76-.16 1.17-.21.21-.01.53-.04.94-.08l.45-.02.01-.03c.84-.09 1.95-.25 3.35-.5 2.6 5.03 6.19 7.46 9.92 8.42 1.42.36 2.85.52 4.26.52 6.71 0 12.71-3.47 12.71-3.47-1.73-4.83-4.56-7.16-7.19-8.24-1.66-.68-3.24-.88-4.4-.88-.29 0-.59 0-.82.06 2.21-.76 4.53-1.66 6.93-2.69 1.3-.56 2.61-1.14 3.96-1.78 1.47 1.12 5.29 3.41 10.12 3.41 4.24 0 9.18-1.71 14.18-7.35 0 0-3.24-3.88-9.29-3.94-.41 0-.82 0-1.29.12h-.22l-.28.01-.38.04c.69-.49 1.37-1 2.05-1.52l.6-.47c.5-.39 1-.8 1.5-1.21l.59-.49c.67-.56 1.33-1.14 2-1.73.74-.66 1.47-1.35 2.21-2.05l.29.13c.31.13.71.3 1.19.47l.08.03.07.03.2.07-.2-.07.47.15.62.19.48.12.14.03c.36.09.74.17 1.15.24l.15.03.03.01.17.03-.17-.03c.83.13 1.72.22 2.67.22 1.45 0 3.02-.2 4.62-.74 3.51-1.18 7.16-3.97 10.03-9.79 0 0-.17-.15-.47-.37l-.23-.13z"/></g><g fill="#FFA229"><path d="M102.18 104.92c-1.16-.54-2.48-.86-3.94-.86-.76 0-1.49.09-2.18.23-4.2.9-6.94 4.44-6.94 9.3 0 5.35 3.65 9.24 9 9.24 5.41 0 9.24-3.82 9.24-9.41-.01-3.64-1.95-6.99-5.18-8.5zM99.82 84.94h-1.41c-.82-.06-1.59-.06-2.35-.06-32.12 0-49.33 25.34-51.4 38.51-.09.55-.16 1.1-.19 1.6-.03.42-.05.85-.06 1.27l.01.72c.05 2.33.51 4.7 1.27 7.02.36 1.1.8 2.19 1.29 3.26 1.5 3.28 3.56 6.39 5.9 9.11 2.92 3.4 6.27 6.2 9.51 7.94.66.35 1.31.66 1.95.92.62.26 1.24.47 1.84.63l.39.09.53.12c1.42.3 2.79.44 4.2.44 2.37 0 4.69-.38 7.02-.9 1.64-.36 3.28-.8 4.95-1.22 3.52-.88 7.16-1.71 11.15-1.71h2.35c5.56.59 10.37 2.99 14.88 4.72 1.17.45 2.32.85 3.45 1.16 1.53.43 3.04.7 4.55.7l.61-.03c.6-.03 1.18-.08 1.8-.21 1.44-.28 3.17-.8 5.06-1.54 1.6-.63 3.32-1.43 5.06-2.39.71-.39 1.42-.81 2.13-1.26l.26-.16c3.76-2.39 7.47-5.56 10.33-9.52 2.42-3.35 4.23-7.27 4.93-11.78.14-.93.21-1.9.23-2.89.01-.25.01-.51 0-.76-.18-16.84-17.14-42.08-50.24-43.78zM66.86 62.14c3.31 1.61 7.2 2.72 11.55 3.04h.41c4.48 0 8.1-4.08 10.66-9.97 6.09-14.02 6.16-38.34-2.66-42.73-1.47-.71-3-1.06-4.53-1.06-13.59 0-27.29 26.18-28.06 33.41-.59 5.78 4.17 13.19 12.63 17.31zM61.82 80.47c-.26-2.87-2.24-7.33-5.21-11.81-4.63-6.98-11.68-13.97-18.43-14.99-.55-.08-1.11-.14-1.65-.14-.61 0-1.21.06-1.8.17-1.28.24-2.52.73-3.72 1.54-4.51 3.42-6.96 8.01-7.97 12.97-.41 2.03-.59 4.11-.56 6.2.07 4.39 1.03 8.8 2.51 12.72.49 1.3 1.03 2.56 1.63 3.73 1.01 2 2.15 3.78 3.34 5.26.48.59.96 1.13 1.45 1.62.92.92 1.86 1.64 2.79 2.12.29.15.58.28.86.38.68.23 1.36.37 2.05.45.39.05.78.08 1.18.08 10.12-.01 22.83-13.48 23.53-20.3zM112.47 66.71c.82.06 1.59.12 2.41.12 8.73 0 15.82-3.55 19.98-8.12 2.48-2.72 3.91-5.81 4.02-8.71 0-7.35-11.12-36.29-25.24-36.29-1.12 0-2.29.18-3.41.59-8.45 2.7-11.62 22.97-8.71 37.49 1.65 8.23 5.25 14.62 10.95 14.92zM172.65 71.29c-.82-5.47-3.26-10.83-8.06-15.29l-.28-.22c-.86-.67-1.77-1.13-2.74-1.39-.67-.18-1.37-.27-2.1-.27-7.95 0-18.17 10.58-23.33 19.37-2.21 3.76-3.49 7.2-3.26 9.33.82 7.65 13.82 19.88 23.47 19.88.82 0 1.71-.12 2.47-.29.21-.05.42-.14.63-.21 1.1-.4 2.24-1.11 3.36-2.07.97-.82 1.92-1.83 2.84-3 2.1-2.67 4-6.13 5.34-10.03l.02-.05c.43-1.25.8-2.55 1.1-3.87.86-3.81 1.14-7.88.54-11.89z"/></g><path fill="#373737" d="M102.18 97.72c-1.3-.27-2.65-.43-4.06-.43-4.62 0-8.76 1.51-11.83 4.16-3.37 2.92-5.47 7.22-5.47 12.48 0 5.11 2.4 9.49 6.08 12.23 2.54 1.89 5.69 3 9.1 3 1.65 0 3.76-.29 5.12-.88l.06.06-8.24 11.29c-1.06 1.41-1.24 2.41-1.24 3.18 0 2.29 1.76 3.82 4 3.82 1.24 0 2.47-.47 3.76-2.35l11.12-16.71c.34-.54.65-1.05.96-1.57 2.48-4.15 3.93-7.62 3.93-12.43 0-7.86-5.46-14.2-13.29-15.85zm-4.06 25.1c-5.35 0-9-3.88-9-9.24 0-4.85 2.74-8.39 6.94-9.3.69-.15 1.41-.23 2.18-.23 1.46 0 2.78.31 3.94.86 3.23 1.52 5.18 4.86 5.18 8.49-.01 5.6-3.83 9.42-9.24 9.42z"/></svg>