<svg xmlns="http://www.w3.org/2000/svg" viewBox="0 0 200 200" enable-background="new 0 0 200 200"><ellipse fill="#FF6533" cx="99.1" cy="100.23" rx="94.43" ry="93.66"/><path fill="#404041" d="M99.09 197.24c-53.91 0-97.77-43.52-97.77-97.01s43.86-97 97.77-97 97.77 43.51 97.77 97-43.85 97.01-97.77 97.01zm0-187.32c-50.22 0-91.08 40.51-91.08 90.31 0 49.8 40.86 90.32 91.08 90.32s91.08-40.51 91.08-90.32c.01-49.8-40.85-90.31-91.08-90.31z"/><path fill="#BF3305" d="M99.09 190.41c-11.88 0-23.44-2.24-34.35-6.66-1.71-.7-2.54-2.65-1.85-4.36.7-1.71 2.65-2.53 4.36-1.85 10.11 4.1 20.82 6.17 31.84 6.17 46.43 0 84.2-37.46 84.2-83.49 0-11.31-2.24-22.28-6.66-32.6-.73-1.7.07-3.67 1.76-4.4 1.71-.71 3.67.07 4.4 1.76 4.78 11.17 7.2 23.02 7.2 35.24 0 49.74-40.78 90.19-90.9 90.19z"/><path fill="#FF9270" d="M172.86 100.2c0 22.86-10.6 43.34-27.11 56.71-12.73 10.31-28.97 16.52-46.65 16.52-12.66 0-24.63-3.14-35.02-8.74-23.05-12.42-38.74-36.65-38.74-64.49 0-40.4 33.03-73.16 73.76-73.16 40.73 0 73.76 32.76 73.76 73.16z"/><path fill="#D44A24" d="M140.11 160.83c-13.79 8.98-28.91 12.6-42.5 12.6-9.73 0-24.74-2.76-36.37-10.03l10.94-52.56 57.16-.43 10.77 50.42zM142.75 68.84c5.97 23.51-8.4 47.36-32.11 53.29s-47.75-8.34-53.72-31.85c-.42-1.64-.77-3.29-.97-4.91-2.54-18.59 7.22-36.55 23.78-44.87 1.42-.77 2.94-1.43 4.47-2.02 1.53-.59 3.17-1.07 4.82-1.48 15.71-3.93 31.57 1.03 42.19 11.61 5.46 5.38 9.51 12.24 11.54 20.23z"/><path fill="#FF9270" d="M135.6 70.62c4.97 19.59-7 39.47-26.76 44.4-19.75 4.93-39.79-6.95-44.77-26.54s7-39.47 26.76-44.4 39.8 6.95 44.77 26.54z"/><path fill="#1A1A1A" d="M89 80.67l-4.13 1.59-1.59-3.99c-1.22-3.18-4-4.59-7.32-3.05-3.64 1.69-3.89 5.19-3.05 7.32l1.4 3.83-3.57 1.29-1.4-3.83c-1.95-4.96.54-10.58 5.54-12.51 5-1.93 10.66.53 12.61 5.5l1.51 3.85zM125.5 65.13l-4.13 1.59-1.59-3.99c-1.22-3.18-4-4.59-7.32-3.05-3.64 1.69-3.89 5.19-3.05 7.32l1.52 3.86-3.57 1.29-1.52-3.86c-1.95-4.96.54-10.58 5.54-12.51 5-1.93 10.66.53 12.61 5.5l1.51 3.85zM121.38 79.41c1.5 5.62.25 11.5-3.26 15.93-1.65 2.08-3.79 3.87-6.35 5.14-3.86 1.94-8.45 2.39-12.73 1.58-4.64-.86-8.87-3.15-11.65-6.63l33.99-16.02z"/><path fill="#FF9270" d="M118.82 94.48c-1.53 2.17-3.58 4.07-6.06 5.47-3.75 2.14-8.31 2.83-12.63 2.25-1.44-5.29 1.99-8.65 7.26-10.27 4.68-1.45 8.45-.39 11.43 2.55z"/><path fill="#1A1A1A" d="M99.29 102.05c.1.01 14.38 3.14 19.89-8.39l-.8-2.3s-4.96 11.58-19.25 8.75l.16 1.94z"/><path fill="#D44617" d="M39.61 146.88c-1.02 0-2.03-.47-2.69-1.35-9.79-13.2-14.96-28.86-14.96-45.3 0-42.2 34.6-76.53 77.13-76.53 23.53 0 45.47 10.46 60.21 28.69 1.16 1.44.94 3.54-.5 4.7-1.44 1.17-3.55.94-4.7-.5-13.46-16.65-33.51-26.21-55.01-26.21-38.84 0-70.44 31.33-70.44 69.84 0 14.99 4.72 29.28 13.64 41.31 1.1 1.48.79 3.58-.69 4.68-.6.46-1.3.67-1.99.67z"/><path fill="#fff" d="M37.48 11.55l3.15 26.02 24.92 3.29-24.92 3.29-3.15 26.02-3.15-26.02-24.92-3.29 24.92-3.29zM177.1 130.26l2.34 19.38 18.56 2.45-18.56 2.45-2.34 19.38-2.35-19.38-18.56-2.45 18.56-2.45z"/><ellipse fill="#fff" cx="51.28" cy="24.63" rx="5.04" ry="5"/><ellipse fill="#fff" cx="22.4" cy="57.82" rx="5.04" ry="5"/><path fill="#1A1A1A" d="M105.81 92.7c1.37-4.06-1.15-8.52-5.17-9.3-5.26-1.02-12.96.25-16.95 14.04 0 0-1.29 5.06-7.3 7.67 0 0 14.45 10.47 18-4.74.01.01 8.96-.35 11.42-7.67z"/><path fill="#404041" d="M114.24 82.57c-10.18-.25-18.26-8.74-18.01-18.93.25-10.18 8.75-18.26 18.93-18.01s18.26 8.74 18 18.93-8.73 18.27-18.92 18.01zm.78-31.32c-7.09-.18-13 5.45-13.18 12.53s5.45 13 12.54 13.18c7.09.18 13-5.45 13.17-12.54s-5.44-12.99-12.53-13.17z"/><path fill="#1A1A1A" d="M135.54 80.84s-1.1 6.42-4.81 9.74c-2.44 2.26-6.02 3.11-11.22-.17 0 0-6.6 6.2-13.38 2.81-3.6-1.78-4.94-6.39-3.09-9.73.09-.19.18-.38.31-.57.95-1.42 2.25-2.87 3.97-3.95 3.12-2.02 7.66-2.8 14.12-.08 1.14.42 2.37 1 3.6 1.73 0 0 1.05.62 2.78.98 1.05.22 2.36.36 3.91.22 1.18-.12 2.45-.43 3.81-.98z"/><path fill="#404041" d="M144.65 79.75l-.12-.01c-1.54-.1-2.72-1.44-2.62-2.98.44-6.75-.82-11.59-3.75-14.39-3.34-3.2-8.02-2.71-8.07-2.71-1.58.14-2.93-.93-3.11-2.46-.18-1.53.9-2.92 2.43-3.11.3-.03 7.24-.84 12.55 4.16 4.24 3.99 6.1 10.35 5.55 18.88-.09 1.5-1.36 2.66-2.86 2.62z"/><path d="M93.5 143.19c0-1.1.52-3.4 3.84-3.4 4.36 0 5.7-2.04 5.7-4.18 0-2.67-2.23-4.08-4.61-4.08-1.82 0-3.06.73-4.36 2.3-.78.94-1.76 1.72-3.37 1.72-2.12 0-3.84-1.57-3.84-3.71 0-1.2.41-2.14 1.5-3.35 2.38-2.61 6.43-4.13 10.63-4.13 6.48 0 12.92 3.35 12.92 10.45 0 4.08-2.59 7.11-6.17 8.05v.16c4.2.99 7.06 4.44 7.06 8.57 0 8.1-7.11 11.76-13.85 11.76-4.66 0-8.6-1.36-11.41-4.13-1.2-1.2-1.71-2.35-1.71-3.66 0-2.25 1.82-3.92 3.94-3.92 1.35 0 2.29.63 3.84 2.2 1.5 1.52 3.01 2.14 4.93 2.14 2.49 0 5.34-1.25 5.34-4.7 0-2.61-2.12-4.65-6.53-4.65-3.34.01-3.85-2.29-3.85-3.44z"/><path fill="#1A1A1A" d="M95.23 98.49s7 2.93 14.22.21c0 0 8.78-3.66 10.03-10.98l3.8 3.37s-3.34 9.19-12.22 12.22c0 0-10.18 4.05-18.44-1.18l2.61-3.64z"/></svg>