<svg baseProfile="tiny" xmlns="http://www.w3.org/2000/svg" viewBox="0 0 200 200"><g fill="#FFCE13"><path d="M185.53 43.35l-40.94-22.35-32.18-17.59-3-1.65c-5.53-3.06-12.35-3.06-17.82 0l-1.65.88-31 16.94-43.47 23.77c-5.53 3-9.35 8.88-9.35 14.94v34.27c.2-1.1.71-2.16 1.53-3.03l44.88-47.29c1.12-1.18 2.71-1.82 4.29-1.82h86.71c1.65 0 3.18.65 4.24 1.82l45 47.29c.96.98 1.47 2.23 1.59 3.5v-35.09c-.01-6.06-3.42-11.59-8.83-14.59zM102.82 186.06c-1.12 1.12-2.65 1.71-4.12 1.71-1.53 0-3-.59-4.18-1.76l-86.81-88.3c-.87-.87-1.39-1.96-1.59-3.1v46.39c0 6.06 3.41 11.59 8.82 14.59l40.94 22.35 32.18 17.59 3 1.65c5.53 3.06 12.35 3.06 17.82 0l1.65-.88 31-16.94 43.47-23.77c5.53-3 9.35-8.88 9.35-14.94v-46.51c-.13 1.33-.68 2.63-1.71 3.63l-89.82 88.29z"/></g><g fill="#373737"><path d="M128.65 121.94l.7.71-27.64-29.12zM69.53 121.94l27.76-28.41-28.64 29.29zM192.76 89.53l-45-47.29c-1.06-1.18-2.59-1.82-4.24-1.82h-86.7c-1.59 0-3.18.65-4.29 1.82l-44.88 47.29c-.82.87-1.33 1.93-1.53 3.03-.12.68-.12 1.37 0 2.05.19 1.14.72 2.23 1.59 3.1l86.82 88.29c1.18 1.18 2.65 1.76 4.18 1.76 1.47 0 3-.59 4.12-1.71l89.82-88.29c1.03-1 1.58-2.3 1.71-3.63v-1.11c-.13-1.26-.64-2.51-1.6-3.49zm-4.23 4.06l-1.51 1.48-43.38 42.64-44.94 44.12-44-44.76-42.82-43.54 44.94-47.24h86.82l44.94 47.24-.05.06z"/></g><g fill="#7ED5D8"><path d="M77.76 68.35l20.95-22.06h-41.89zM98.71 46.29l22.11 23.24 22.71-23.24z"/></g><g fill="#9FE8F2"><path d="M77.76 68.35l21.77 22.89 21.29-21.71-22.11-23.24zM143.65 93.53l-14.3 29.12 14.28 15.04.02.02 43.37-42.64 1.51-1.48.06-.06zM56.82 118.88l-2.65-22.47-21.35-2.82.44-.06h-21.38l42.82 43.53 13.94-14.24-9.93-19.63-1.89 15.69zm-9-9.53c-1.66 0-3-1.42-3-3.18 0-1.75 1.34-3.18 3-3.18s3 1.42 3 3.18c0 1.76-1.34 3.18-3 3.18z"/></g><g fill="#6ECBCC"><path d="M77.76 68.35l-20.94-22.06-44.94 47.24h21.39l20.91-2.77 2.64-22.41 2.36 19.54zM143.65 46.29h-.12l-22.71 23.24 22.83 24h44.94zM129.35 122.65l14.3-29.12h-41.94zM80.82 93.59l-21.29 2.82-.82 6.78 9.94 19.63 28.64-29.29h-16.91z"/></g><path fill="#40C1C2" d="M101.71 93.53h-4.42l-27.76 28.41h59.12z"/><path fill="#3AAFB0" d="M128.65 121.94h-59.12l-.88.88 30.06 59 30.64-59.17z"/><g fill="#97DCE6"><path d="M54.71 137.06l44 44.76-30.06-59zM129.35 122.65l-30.64 59.17 44.94-44.11-.02-.02zM80.38 93.53h63.27l-22.82-24-21.3 21.71-21.77-22.89-18.58 19.54.35 2.87 20.85 2.77zm-11.62-12.59c1.66 0 3 1.42 3 3.18 0 1.75-1.34 3.18-3 3.18s-3-1.42-3-3.18c0-1.76 1.35-3.18 3-3.18z"/></g><g fill="#fff"><path d="M80.38 93.53l-20.85-2.77-.35-2.87-2.36-19.54-2.64 22.41-20.91 2.77-.45.06 21.36 2.82 2.64 22.47 1.89-15.69.82-6.78 21.29-2.82z"/><ellipse cx="68.76" cy="84.12" rx="3" ry="3.18"/><ellipse cx="47.82" cy="106.18" rx="3" ry="3.18"/></g></svg>