<svg baseProfile="tiny" xmlns="http://www.w3.org/2000/svg" viewBox="0 0 200 200"><g><g fill="#B8B9BA"><path d="M100.26-.53h.08-.04-.04zM98.63-.45c.54-.05 1.08-.08 1.63-.08-.54.01-1.09.03-1.63.08zM102.16-.43l.13.02c-.36-.04-.71-.09-1.07-.1.32.02.63.04.94.08zM103.16-.29l.15.03c-.29-.04-.58-.1-.88-.13.25.02.49.05.73.1zM188.41 52.71v75.7c0 5.47-3.17 10.59-8.29 13.3l-8.53 4.53v-46.4l-.12-1.49c-1.82-5.77-9.76-10.29-23.65-13.47-12.64-2.88-29.35-4.47-47-4.47-17.64 0-34.35 1.59-47 4.47-14.08 3.16-22 7.78-23.7 13.65l-.36 2.77v45.17l-.05-.06-8.89-4.7c-5.17-2.71-8.35-7.83-8.35-13.3v-75.7c0-5.53 3.18-10.53 8.35-13.3l40.71-21.65 29.06-15.41.06-.03c-4.92 3.18-8.18 8.69-8.18 14.97 0 7.44 4.56 13.81 11.03 16.48.88 1.18 2.06 2.12 3.44 2.7v7.71c0 1.76 1.41 3.17 3.18 3.17 1.76 0 3.23-1.41 3.17-3.23v-7.61c1.38-.55 2.58-1.47 3.48-2.62 6.64-2.6 11.35-9.04 11.35-16.6 0-.61-.03-1.22-.09-1.82-.06-.55-.14-1.1-.25-1.63-.69-3.53-2.42-6.68-4.87-9.13-.39-.4-.82-.79-1.26-1.15-.66-.55-1.36-1.05-2.09-1.49-.24-.16-.49-.3-.74-.43-.49-.27-1-.52-1.52-.74-.78-.33-1.6-.61-2.43-.83-.51-.14-1.03-.24-1.56-.33 1.91.29 3.78.86 5.51 1.79l2.83 1.53 30.11 16 38.36 20.35c5.12 2.77 8.29 7.77 8.29 13.3zM101.22-.51c.32.02.63.04.94.08-.56-.06-1.12-.09-1.69-.1.25 0 .5.01.75.02zM112.91 4.71c-.4-.4-.82-.79-1.26-1.15.44.36.87.75 1.26 1.15z"/></g><path fill="#FCB017" d="M118.12 17.29c0 7.56-4.71 14-11.35 16.6 1.1-1.41 1.76-3.19 1.76-5.13 0-4.58-3.77-20.52-8.35-20.58-4.59 0-8.36 16-8.36 20.58 0 1.88.63 3.61 1.68 5.01-6.47-2.67-11.03-9.04-11.03-16.48 0-6.28 3.26-11.79 8.18-14.97 1.2-.78 2.52-1.39 3.9-1.86v-.01c.39-.13.78-.25 1.18-.36.46-.12.92-.23 1.38-.32.42-.07.84-.15 1.26-.19l.26-.03c.52-.05 1.04-.08 1.57-.08h.27c.25 0 .5.01.75.02.32.02.63.04.94.08 2.39.25 4.65.97 6.66 2.07.25.13.5.28.74.43.73.44 1.43.94 2.09 1.49.44.36.87.75 1.26 1.15 2.45 2.45 4.18 5.6 4.87 9.13.11.53.19 1.08.25 1.63.06.6.09 1.21.09 1.82z"/><g fill="#C18E54"><path d="M125.06 172.47v8.06c-2.88.29-5.82.53-8.88.71-4.94.23-10.06.41-15.36.41-3.35 0-6.7-.06-9.88-.18-10.47-.35-20.06-1.35-28.18-2.76-13.23-2.18-22.52-5.59-25-9.47-.2-.35-.36-.7-.47-1.04v-15.84c.22.05.43.08.65.1.82.08 1.63-.06 2.34-.45.15-.08.29-.15.43-.25.6-.45 1.05-1.06 1.45-1.7l.33.13c.66.26 1.34.51 2.04.76 1.48.52 3.07 1.02 4.77 1.5 1.27.35 2.6.7 4.01 1.03.11.6.21 1.22.31 1.83l.1.72.19 1.26.03.18c.12.7.26 1.41.44 2.09.17.65.4 1.29.7 1.88.15.3.32.58.51.85 1 1.42 2.65 2.42 4.35 2.12.72-.13 1.33-.46 1.83-.94 1.03-.97 1.6-2.55 1.81-4.18.07-.51.1-1.03.1-1.53-.01-.28-.01-.55-.03-.82l-.13-1.51c4.52.71 9.35 1.28 14.42 1.71 2.74.23 5.54.41 8.4.56l-1.28.18c3.83-.55 6.69.48 9.3 2.95.48.44.94.92 1.4 1.46 1.22 1.4 2.34 2.93 3.59 4.3.24.26.49.51.74.76.45.45.93.86 1.44 1.24.15.12.31.24.47.35.2.14.39.24.59.35 2.87 1.72 5 1.52 6.7.42.2-.13.39-.27.57-.42.27-.21.53-.45.79-.7.38-.38.75-.79 1.11-1.24.2-.24.4-.5.6-.76 1.63-2.15 3.16-4.66 5.18-6.13.41-.29.83-.55 1.28-.75 2.03-.92 4.04-.66 5.91.19l.21.1v1.88l.06 4.71v4.35l.06 1.53zM164.06 147.63v21.22c-.89 1.63-2.89 3.21-5.94 4.68h-.06l-.71-.29.18-.71c.18-.88.23-1.77.23-2.65v-15.31l.06.02v-.18c.3-.09.58-.19.87-.3l.6-.26c.18-.08.36-.17.53-.26.88-.48 1.78-1.39 2.35-2.41.37-.66.59-1.36.59-2.02 0-.26-.03-.51-.11-.75.49-.26.96-.52 1.41-.78zM164.06 139.31c-.76 1.36-2.33 2.66-4.62 3.88l-.15.07c-.47.25-.99.5-1.53.74v-13.27l1.53-.43 1.95-.54c.87-.24 1.99-.57 2.82-.81.02.46 0 10.36 0 10.36zM124.88 145.33v5.6c-1.19.11-2.41.21-3.64.31-6.4.49-13.24.76-20.36.76-6.84 0-13.42-.25-19.6-.71-6.23-.46-12.03-1.13-17.26-1.98l.08-.17c.18-.36.39-.7.66-1.02.45-.53.99-.93 1.58-1.23 1.95-1.01 4.52-.91 6.78-.6.44.06.9.12 1.38.16 2.48.25 5.26.22 7.09-1.51.36-.34.74-.76 1.16-1.17 1.6-1.61 3.81-3.24 8.43-.77.61.33.9.3 1 .05 2.83 1.65 5.72 3.24 8.7 3.24 3.3 0 6.47-1.88 9.59-3.76 1.55-.94 3.08-1.85 4.61-2.53 1.25-.55 2.5-.95 3.74-1.06.3-.06.59-.06.89-.06 1.62 0 3.37.22 5.05.67v5.74l.12.04zM47.98 104.74l.08.26c.47 1.12 1.53 1.82 2.71 1.82.41 0 .76-.12 1.12-.24l4.84-2 2.56-1.06 3.42-1.41c1.13-.45 1.84-1.6 1.81-2.78-.01-.23-.05-.46-.11-.69-.03-.12-.06-.24-.11-.35-.59-1.47-2.35-2.18-3.82-1.59l-4.7 1.94-6.12 2.53c-.99.4-1.65 1.33-1.78 2.35-.05.35-.03.71.06 1.06l.04.16zM136.6 103.53c-.13-.25-.28-.49-.48-.71l-3.87-4.18-.55-.59-3.11-3.35c-1.12-1.24-3-1.29-4.18-.18-.76.69-1.07 1.67-.94 2.59.08.55.32 1.08.72 1.52l.05.06 4.47 4.82.24.26 5.83.8 2.13.29-.02-.29c-.03-.35-.13-.71-.29-1.04zM107.95 111.59c.29.46.67.82 1.12 1.06.41.22.87.35 1.34.35.47 0 .94-.12 1.41-.35l2-1.06 3.78-2 .9-.47-2.51-1.94-.06-.06-2.56-1.99-3.77 1.99-.56.29c-.87.45-1.4 1.28-1.54 2.18-.09.61-.01 1.25.3 1.82l.15.18zM67.41 106.94l.37.18 5.2 2.47 3.84 1.82c.17.07.35.13.54.18.26.07.52.12.76.12.27 0 .54-.04.8-.12.76-.22 1.45-.76 1.84-1.59.06-.13.1-.27.14-.41.24-.85.1-1.75-.36-2.47-.28-.44-.68-.82-1.18-1.06l-3.1-1.47-2.23-1.06-4.09-1.94c-1.47-.65-3.29-.06-3.94 1.41-.08.17-.13.35-.17.53-.08.35-.1.71-.06 1.06.11.98.68 1.89 1.64 2.35zM92.47 94.18l4.33 2.06 5.08 2.41c.35.18.82.29 1.24.29.42 0 .82-.12 1.21-.29.6-.27 1.14-.73 1.5-1.41.16-.33.24-.68.27-1.02.1-1.19-.54-2.37-1.68-2.92l-5.53-2.63-3.89-1.85c-1.47-.65-3.24-.06-3.94 1.41-.1.21-.17.44-.22.66-.27 1.31.37 2.68 1.63 3.29zM76.24 95.76h7.06c1.65 0 2.94-1.29 2.94-2.94 0-.62-.18-1.18-.49-1.65-.52-.78-1.42-1.29-2.45-1.29h-7.06c-1.48 0-2.67 1.05-2.89 2.46-.03.16-.05.32-.05.48-.01 1.65 1.29 2.94 2.94 2.94zM152.59 97.82l-8.94-3.29-.28-.07-.33-.07c-1.35-.17-2.69.58-3.15 1.9-.28.8-.19 1.65.17 2.35.19.38.46.7.8.97.24.18.5.34.8.45l8.94 3.29c.29.12.65.18 1 .18.49 0 .96-.12 1.38-.34.63-.33 1.14-.89 1.39-1.6.36-1.04.11-2.16-.57-2.94-.33-.36-.73-.66-1.21-.83zM89.46 104.59c.32.39.74.71 1.25.88l4.47 1.65 4.47 1.65c.29.12.65.18 1 .18 1.14 0 2.21-.72 2.71-1.82l.06-.12c.29-.83.18-1.7-.2-2.41-.23-.42-.55-.79-.97-1.06-.18-.12-.38-.22-.59-.29l-8.94-3.29c-1.53-.53-3.24.24-3.76 1.76-.21.61-.21 1.24-.04 1.82.09.38.28.74.54 1.05z"/></g><g fill="#FCE9AD"><path d="M163.73 98.65c-4.82-6.94-31.15-12.24-62.91-12.24s-58.08 5.3-62.9 12.24c-.1.14-.19.28-.26.43l-.01.01c-.15.27-.27.55-.36.82v2.06c.17.53.45 1.05.86 1.56.28.36.6.71.99 1.06l.12.09c.98.85 2.29 1.66 3.9 2.44.51.24 1.04.49 1.61.73 1.44.61 3.07 1.19 4.86 1.74 2.35.72 4.98 1.39 7.86 2 1.78.37 3.65.73 5.61 1.06 10.56 1.77 23.6 2.82 37.72 2.82 7.88 0 15.42-.33 22.39-.92-.35-.69-.75-1.33-1.21-1.9-.24-.36-.47-.71-.82-1.06-.59-.71-1.3-1.41-2.06-2l-.61-.48-.9.48-3.78 2-2.01 1.06c-.47.23-.94.35-1.41.35s-.93-.13-1.34-.35c-.45-.24-.83-.6-1.12-1.06l-.13-.18c-.31-.57-.39-1.21-.3-1.82.13-.89.67-1.72 1.54-2.18l.56-.29 3.76-1.99-.62-.48-.07-.06-1.34-1.06h-.06l-3.41-2.65 10.73 1.48 4.52.62 3.96.55 1.86.26-.24-.26-4.47-4.82-.05-.06c-.4-.44-.64-.97-.72-1.53-.13-.92.18-1.9.94-2.59 1.18-1.12 3.06-1.06 4.18.18l3.1 3.34.55.6 3.88 4.17c.2.22.35.46.48.71.16.33.26.69.29 1.06l.02.29 3.71.51 3.79.53 8.72 1.2 4.12.57c.43-.19.84-.38 1.24-.57l.21-.11c1.56-.77 2.85-1.58 3.8-2.42.4-.35.72-.7 1-1.06l.16-.21c.16-.21.29-.42.4-.64v-3.48c-.1-.18-.2-.37-.33-.55zm-94.32-4c1.33 0 2.41 1.08 2.41 2.41 0 .4-.1.77-.28 1.1-.09.18-.2.34-.33.49-.44.5-1.08.82-1.8.82-.67 0-1.27-.27-1.71-.71l-.09-.11c-.38-.43-.61-.98-.61-1.59 0-1.33 1.08-2.41 2.41-2.41zm-23.7 6.76c-.78 0-1.46-.35-1.92-.9-.38-.44-.61-1-.61-1.63l.02-.23c.12-1.29 1.19-2.3 2.51-2.3 1.17 0 2.15.81 2.43 1.89.04.13.06.27.07.41l.03.23c0 1.4-1.14 2.53-2.53 2.53zm17 .71l-3.42 1.41-2.57 1.06-4.84 2c-.35.12-.7.23-1.12.23-1.17 0-2.23-.7-2.7-1.82l-.08-.26-.05-.15c-.09-.35-.11-.71-.07-1.06.13-1.02.79-1.96 1.79-2.35l6.12-2.53 4.7-1.94c1.47-.59 3.24.11 3.82 1.58l.12.36c.06.23.1.46.11.69.02 1.18-.68 2.32-1.81 2.78zm18.19 7.47c-.04.14-.08.28-.14.41-.39.83-1.08 1.37-1.84 1.59-.26.07-.53.12-.8.12-.24 0-.5-.05-.76-.12-.18-.05-.37-.11-.54-.18l-3.84-1.82-5.2-2.47-.37-.18c-.96-.46-1.53-1.37-1.64-2.35-.04-.35-.03-.71.06-1.06.04-.18.09-.36.17-.53.65-1.47 2.47-2.06 3.94-1.41l4.09 1.94 2.23 1.06 3.09 1.47c.51.24.9.62 1.19 1.06.46.72.6 1.62.36 2.47zm3.02-6.06c-.45.43-1.06.71-1.74.71s-1.3-.28-1.75-.71c-.48-.46-.78-1.11-.78-1.82 0-1.4 1.13-2.53 2.53-2.53 1.39 0 2.53 1.13 2.53 2.53 0 .71-.31 1.36-.79 1.82zm-.63-7.77h-7.05c-1.65 0-2.95-1.29-2.95-2.94 0-.16.03-.32.05-.48.23-1.41 1.41-2.46 2.9-2.46h7.05c1.04 0 1.93.51 2.45 1.29.31.47.5 1.04.5 1.65 0 1.65-1.3 2.94-2.95 2.94zm9.04 16.89c-.39.96-1.34 1.64-2.45 1.64s-2.05-.68-2.45-1.64c-.12-.31-.19-.65-.19-1v-.06c.02-.81.41-1.53 1-2 .45-.36 1.02-.59 1.64-.59.63 0 1.19.23 1.65.59.59.47.98 1.19.99 2l.01.06c0 .35-.07.69-.2 1zm11.08-5.65l-.06.12c-.49 1.1-1.57 1.82-2.7 1.82-.36 0-.71-.06-1-.18l-4.47-1.64-4.47-1.65c-.52-.18-.93-.49-1.25-.88-.26-.31-.45-.67-.56-1.06-.17-.58-.17-1.21.04-1.82.53-1.53 2.24-2.3 3.77-1.77l8.94 3.3c.21.07.41.17.59.29.42.27.74.63.97 1.06.39.71.49 1.58.2 2.41zm2.68-10.79c-.03.35-.11.69-.27 1.03-.35.67-.89 1.13-1.49 1.41-.39.17-.8.29-1.21.29-.41 0-.88-.12-1.24-.29l-5.08-2.42-4.33-2.05c-1.26-.61-1.9-1.98-1.63-3.29.05-.22.12-.44.22-.65.7-1.48 2.47-2.06 3.94-1.42l3.88 1.85 5.53 2.62c1.14.55 1.78 1.73 1.68 2.92zm10.06.37c-.22.35-.59.6-1.03.6-.5 0-.91-.3-1.11-.72-.08-.16-.13-.33-.13-.52 0-.68.56-1.23 1.24-1.23s1.23.55 1.23 1.23c0 .24-.08.45-.2.64zm3.85-1.29c-1.4 0-2.53-1.13-2.53-2.53 0-.61.23-1.17.6-1.61.46-.56 1.15-.91 1.93-.91.91 0 1.7.48 2.15 1.2.23.38.38.84.38 1.32 0 1.4-1.13 2.53-2.53 2.53zm15.07-2.36c-.27.86-1.06 1.48-2.01 1.48-1.15 0-2.08-.92-2.11-2.06l-.01-.06c0-1.17.95-2.11 2.12-2.11s2.12.94 2.12 2.11c0 .23-.05.44-.11.64zm19.28 8.66c-.25.71-.75 1.26-1.39 1.6-.41.21-.88.34-1.37.34-.35 0-.71-.06-1-.18l-8.94-3.29c-.3-.1-.56-.26-.8-.45-.34-.26-.61-.59-.8-.96-.36-.71-.45-1.55-.17-2.36.46-1.32 1.81-2.07 3.16-1.9l.33.07.28.07 8.94 3.29c.48.17.88.47 1.19.83.68.78.93 1.89.57 2.94zm6.6 1.94c-.34.56-.95.94-1.66.94-.7 0-1.31-.38-1.65-.94-.18-.29-.29-.63-.29-1 0-1.07.87-1.94 1.94-1.94 1.08 0 1.95.87 1.95 1.94 0 .37-.11.71-.29 1zM70.06 131.18c-1.82 1.64-4.59 2.11-6.94 1.47-1.88-.53-3.53-1.65-5.36-2.41-.51-.2-1.06-.36-1.61-.47-1.39-.28-2.83-.2-3.97.64-.15.11-.26.23-.38.35-.7.67-1.12 1.57-1.4 2.55-.25.89-.41 1.83-.57 2.73l-.07.37c-.35 2.24-1.47 4.77-3.7 4.94-.52.04-1.03-.06-1.53-.19l-.1-.02c-.88-.24-1.75-.56-2.67-.38-.67.14-1.21.56-1.68 1.08-.54.62-.99 1.38-1.43 2.04-.15.23-.32.45-.5.66l-.21.24c-.2.21-.42.39-.65.56v-32.69c.19-.08.39-.13.59-.17l.06-.01c.17-.03.35-.05.53-.05.63.01 1.28.17 1.94.41.39.18.78.35 1.19.52.55.28 1.08.59 1.58.89.42.25.86.48 1.29.72 1.32.71 2.67 1.36 4.06 1.91l.61.25c3.3 1.26 6.76 2.06 10.27 2.35 1.02.08 2.06.13 3.09.2 1.34.09 2.67.23 3.97.57 1.98.5 3.9 1.62 4.93 3.35.16.28.31.57.42.88.09.22.15.44.21.66l.08.37c.04.21.06.41.07.62.12 1.88-.72 3.83-2.12 5.06z"/></g><g fill="#AB7E4A"><path d="M157.76 120.53v23.75l-.38-.11-12.33-3.47-1.36-.38-5.34-1.5-13.53-3.8v-1.63l-.06-6.47v-5.8c0-.18 0-.35-.05-.53v-.06c0-.88-.12-1.81-.35-2.63l-.01-.02c0-.29-.06-.53-.23-.76-.18-.88-.53-1.71-.88-2.53l-.03-.04c-.35-.69-.75-1.33-1.21-1.9-.24-.36-.47-.71-.82-1.06-.59-.71-1.3-1.41-2.06-2l-.61-.48-2.51-1.93-.06-.06-2.56-1.99-.62-.48-.07-.06-1.34-1.06h-.06l-3.41-2.65 3.5 2.65 1.4 1.06.67.5 2.67 2.03 2.54 1.91.58.44.74.12 5.4.86 4.97.78 2.23.36 6.32 1 .35.06 14.67 2.32 1.21.2 1.74.27.01.03c.18.53.36 1.06.47 1.65.18.76.3 1.53.36 2.35v.12c.05.29.05.65.05.94zM125.88 168.65l1.83.64h-2.65v3.18l-.06-1.53v-3.59l.06 1 .07.02v.01l.59.21.16.06zM157.76 154.57v15.31c0 .88-.05 1.77-.23 2.65l-.18.71-.53-.18-9.76-3.39-.06-.02-.94-.36-1.82-.64-.17-.06-3.19-1.12-.35-.12-2.18-.76-3.07-1.08-5.63-1.98-.09-.03-4.38-1.5-.18-.12v4.71l-.06-4.71v-8.23l-.06-1.48v-6.84l5.74 1.61c.31.1.62.18.92.26l6.46 1.81.57.17 2.44.68 4.05 1.14 6 1.69 3.79 1.06 1.7.48.96.27.25.07z"/></g><g fill="#865C28"><path d="M125.47 169.29v17.36l-1.66.15c-.28.03-.56.06-.84.08-.66.06-1.33.12-2.04.17l-1.05.07c-3.64.23-7.53.41-11.35.53-2.35.06-4.65.06-7.06.06h-.65c-1.36-.01-2.68-.01-4.06-.06-2-.06-3.88-.12-5.76-.18-1.06-.04-2.12-.08-3.17-.13-12.31-.58-23.67-1.99-32.89-4.1-7.82-1.82-13.69-4.04-17.65-6.68v-8.36c.11.34.27.69.47 1.04 2.48 3.88 11.77 7.29 25 9.47 8.12 1.41 17.71 2.41 28.18 2.76 3.18.12 6.53.18 9.88.18 5.3 0 10.42-.18 15.36-.41 3.06-.18 6-.42 8.88-.71v-11.24h.41zM164.06 168.85v8.72c-1.82 1.03-3.95 2-6.41 2.9l.23-.41-.11-.04-.01.04-1-.35-2.11-.77-6-2.18h-.12l-14.82-5.29-6-2.18-1.83-.64-.16-.06-.59-.21v-.01l-.07-.02-.06-1v-5.47l.18.12 4.38 1.5.09.03 5.63 1.98 3.07 1.08 2.18.76.35.12 3.19 1.12.17.06 1.82.64.94.36.06.02 9.76 3.39.53.18.71.29h.06c3.05-1.47 5.05-3.05 5.94-4.68zM67.7 98.76c.44.44 1.04.71 1.71.71.72 0 1.36-.32 1.8-.82.13-.15.24-.31.33-.48.17-.33.28-.7.28-1.1 0-1.33-1.08-2.41-2.41-2.41s-2.41 1.08-2.41 2.41c0 .61.23 1.16.61 1.59l.09.1zM45.71 101.41c1.4 0 2.53-1.13 2.53-2.53l-.02-.24c-.01-.14-.03-.27-.07-.4-.28-1.09-1.26-1.89-2.44-1.89-1.32 0-2.39 1.01-2.51 2.29l-.02.24c0 .62.23 1.19.61 1.63.46.55 1.14.9 1.92.9zM89.88 114.29c1.11 0 2.05-.68 2.45-1.65.13-.31.2-.65.2-1l-.01-.06c-.02-.81-.4-1.53-1-2-.45-.36-1.02-.59-1.65-.59-.63 0-1.19.23-1.65.59-.59.47-.98 1.19-1 2l-.01.06c0 .35.07.69.2 1 .42.97 1.36 1.65 2.47 1.65zM115.12 97.18c.44 0 .82-.25 1.03-.6.12-.19.2-.4.2-.64 0-.68-.55-1.24-1.24-1.24-.68 0-1.24.55-1.24 1.24 0 .19.05.36.13.52.21.42.62.72 1.12.72zM120 95.29c1.4 0 2.53-1.13 2.53-2.53 0-.49-.14-.94-.38-1.33-.45-.72-1.24-1.2-2.15-1.2-.78 0-1.47.36-1.93.91-.37.44-.6 1-.6 1.62 0 1.4 1.13 2.53 2.53 2.53zM133.06 94.41c.95 0 1.74-.63 2.01-1.48.06-.2.11-.41.11-.63 0-1.17-.95-2.12-2.12-2.12s-2.12.95-2.12 2.12l.01.06c.03 1.13.96 2.05 2.11 2.05zM82.18 104.24c.68 0 1.29-.27 1.75-.71.48-.46.78-1.11.78-1.82 0-1.4-1.13-2.53-2.53-2.53s-2.53 1.13-2.53 2.53c0 .72.3 1.36.78 1.82.45.43 1.07.71 1.75.71zM159.29 104.47c.7 0 1.32-.38 1.66-.94.18-.29.29-.63.29-1 0-1.07-.87-1.94-1.94-1.94s-1.94.87-1.94 1.94c0 .37.11.71.29 1 .33.56.94.94 1.64.94z"/></g><g fill="#E8D7A0"><path d="M124.82 133.39v1.63l-.06-.02v4.55c-1.68-.45-3.43-.67-5.05-.67-.3 0-.59 0-.89.06-1.24.11-2.49.51-3.74 1.06-1.53.68-3.06 1.59-4.61 2.53-3.12 1.88-6.29 3.76-9.59 3.76-2.98 0-5.87-1.59-8.7-3.24-.1.25-.39.28-1-.05-4.62-2.47-6.83-.84-8.43.77-.42.41-.8.83-1.16 1.17-1.83 1.73-4.61 1.76-7.09 1.51-.48-.04-.94-.1-1.38-.16-2.26-.31-4.83-.41-6.78.6-.59.3-1.13.7-1.58 1.23-.27.32-.48.66-.66 1.02l-.08.17c-.38.83-.56 1.75-.62 2.72-.03.53-.03 1.08 0 1.64.02.56.06 1.12.11 1.68l.01.08.13 1.51c.02.27.02.54.03.82 0 .5-.03 1.02-.1 1.53-.21 1.63-.78 3.21-1.81 4.18-.5.48-1.11.81-1.83.94-1.7.3-3.35-.7-4.35-2.12-.19-.27-.36-.55-.51-.85-.3-.59-.53-1.23-.7-1.88-.18-.68-.32-1.39-.44-2.09l-.03-.18-.19-1.26-.1-.72c-.1-.61-.2-1.23-.31-1.83-.14-.69-.3-1.36-.51-2.01-.26-.8-.58-1.58-1.04-2.29-.14-.24-.31-.46-.49-.67-1.06-1.3-2.67-2.19-4.23-2.29-.89-.06-1.76.15-2.51.68l-.06.04c-1.02.76-1.59 1.95-2.26 3.04l-.05.08c-.4.64-.85 1.25-1.45 1.7-.14.1-.28.17-.43.25-.71.39-1.52.53-2.34.45-.22-.02-.43-.05-.65-.1v-7.02c.23-.17.45-.35.65-.56l.21-.24c.18-.21.35-.43.5-.66.44-.66.89-1.42 1.43-2.04.47-.52 1.01-.94 1.68-1.08.92-.18 1.79.14 2.67.38l.1.02c.5.13 1.01.23 1.53.19 2.23-.17 3.35-2.7 3.7-4.94l.07-.37c.16-.9.32-1.84.57-2.73.28-.98.7-1.88 1.4-2.55.12-.12.23-.24.38-.35 1.14-.84 2.58-.92 3.97-.64.55.11 1.1.27 1.61.47 1.83.76 3.48 1.88 5.36 2.41 2.35.64 5.12.17 6.94-1.47 1.4-1.23 2.24-3.18 2.12-5.06-.01-.21-.03-.41-.07-.62l-.08-.37c-.06-.22-.12-.44-.21-.66-.11-.31-.26-.6-.42-.88-1.03-1.73-2.95-2.85-4.93-3.35-1.3-.34-2.63-.48-3.97-.57-1.03-.07-2.07-.12-3.09-.2-3.51-.29-6.97-1.09-10.27-2.35l-.61-.25c-1.39-.55-2.74-1.2-4.06-1.91-.43-.24-.87-.47-1.29-.72-.5-.3-1.03-.61-1.58-.89-.39-.19-.79-.37-1.19-.52-.66-.24-1.31-.4-1.94-.41-.18 0-.36.02-.53.05l-.06.01c-.2.04-.4.09-.59.17v-10.68c.17.53.45 1.05.86 1.56.28.36.6.71.99 1.06l.12.09c.98.85 2.29 1.66 3.9 2.44.51.24 1.04.49 1.61.73 1.44.61 3.07 1.19 4.86 1.74 2.35.72 4.98 1.39 7.86 2 1.78.37 3.65.73 5.61 1.06 10.56 1.77 23.6 2.82 37.72 2.82 7.88 0 15.42-.33 22.39-.92l.03.04c.35.82.7 1.65.88 2.53.17.23.23.47.23.76l.01.02c.23.82.35 1.75.35 2.63v.06c.05.18.05.35.05.53v5.8l.06 6.47zM37.92 98.65c-.1.14-.19.28-.26.43l-.01.01c-.15.27-.27.55-.36.82v-1.26h.63zM164.06 102.68v26.28l-.26.08c-.83.24-1.69.48-2.56.72l-1.95.54-1.53.43v-10.2c0-.29 0-.65-.05-.94v-.12c-.06-.82-.18-1.59-.36-2.35-.11-.59-.29-1.12-.47-1.65l-.01-.03-1.74-.27-1.21-.2-14.67-2.32-.35-.06-6.32-1-2.23-.36-4.97-.78-5.4-.86-.74-.12-.58-.44-2.54-1.91-2.67-2.03-.67-.5-1.4-1.06-3.5-2.65 10.73 1.48 4.52.62 3.96.55 1.86.26 5.82.8 2.14.29 3.71.51 3.79.53 8.72 1.2 4.12.57c.43-.19.84-.38 1.24-.57l.21-.11c1.56-.77 2.85-1.58 3.8-2.42.4-.35.72-.7 1-1.06l.16-.21c.16-.21.29-.42.4-.64z"/></g><path fill="#FDE800" d="M108.53 28.76c0 1.94-.66 3.72-1.76 5.13-.9 1.15-2.1 2.07-3.48 2.62v-5.33c0-1.77-1.41-3.18-3.17-3.18-1.77 0-3.18 1.41-3.18 3.18v5.29c-1.38-.58-2.56-1.52-3.44-2.7-1.05-1.4-1.68-3.13-1.68-5.01 0-4.58 3.77-20.58 8.36-20.58 4.58.06 8.35 16 8.35 20.58z"/><g fill="#7A533B"><path d="M100.82 187.71c-1.58 0-3.17 0-4.76-.06-2-.06-3.94-.12-5.82-.18l-2.41-.13c1.05.05 2.11.09 3.17.13 1.88.06 3.76.12 5.76.18 1.38.05 2.7.05 4.06.06zM103.29 31.18v12.94c.06 1.82-1.41 3.23-3.17 3.23-1.77 0-3.18-1.41-3.18-3.17v-13c0-1.77 1.41-3.18 3.18-3.18 1.76 0 3.17 1.41 3.17 3.18z"/></g><g fill="#373737"><path d="M125.13 168.37v.01l.59.21.16.06 1.83.64-2.58-.92zm0 0v18.3c-.46.05-.89.09-1.32.13l1.66-.15v-17.36h2.24l-2.58-.92zm-87.84-68.69l.36-.59.01-.01c.07-.15.16-.29.26-.43h-.63v1.03zm87.84 68.69v.01l.59.21.16.06 1.83.64-2.58-.92zM171.59 148.58v-48.69l-.12-1.54c-1.82-5.77-9.76-10.29-23.65-13.47-12.64-2.88-29.35-4.47-47-4.47-17.64 0-34.35 1.59-47 4.47-14.08 3.16-22 7.78-23.7 13.65l-.36 2.77v47.52c-17.25 5.37-27.88 12.7-27.88 20.77 0 16.5 44.41 29.88 99.18 29.88s99.18-13.38 99.18-29.88c0-8.19-10.94-15.61-28.65-21.01zm-7.53-9.27c-.76 1.36-2.33 2.66-4.62 3.88l-.15.07c-.47.25-.99.5-1.53.74v.28l-.38-.11-12.33-3.47-1.36-.38-5.34-1.5-13.53-3.8-.06-.02v10.29l.12.04 5.74 1.61.92.26 6.46 1.81.57.17 2.44.68 4.05 1.14 6 1.69 3.79 1.06 1.7.48.96.27.25.07.06.02v-.18c.3-.09.58-.19.87-.3l.6-.26c.18-.08.36-.17.53-.26.88-.48 1.78-1.39 2.35-2.41.37-.66.59-1.36.59-2.02 0-.26-.03-.51-.11-.75.49-.26.96-.52 1.41-.78v29.94c-1.82 1.03-3.95 2-6.41 2.9l.23-.41-.11-.04-.01.04-1-.35-2.11-.77-6-2.18h-.12l-14.82-5.29-6-2.18h-2.24v17.36l-1.66.15c-.28.03-.56.06-.84.08-.66.06-1.33.12-2.04.17l-1.05.07c-3.64.23-7.53.41-11.35.53-2.35.06-4.65.06-7.06.06h-.65c-1.58 0-3.17 0-4.76-.06-2-.06-3.94-.12-5.82-.18l-2.41-.13c-12.31-.58-23.67-1.99-32.89-4.1-7.82-1.82-13.69-4.04-17.65-6.68v-77.91h.63c4.82-6.94 31.14-12.24 62.9-12.24s58.09 5.3 62.91 12.24c.13.18.23.37.33.55v40.11zM51.76 149.18c-.15-.23-.31-.46-.49-.67-1.07-1.29-2.67-2.19-4.23-2.29-.89-.06-1.76.15-2.51.68l-.06.04c-1.02.76-1.59 1.95-2.26 3.04l-.05.07.33.13c.65.26 1.33.51 2.04.76 1.48.52 3.07 1.02 4.77 1.5 1.28.36 2.61.7 4.01 1.03-.13-.68-.3-1.35-.51-2-.26-.8-.58-1.58-1.04-2.29zM124.88 152.12v-1.19c-1.2.11-2.41.21-3.64.31-6.39.49-13.24.76-20.36.76-6.84 0-13.42-.25-19.6-.71-6.23-.46-12.03-1.13-17.26-1.98-.38.83-.56 1.75-.61 2.71-.03.54-.03 1.09-.01 1.64.02.56.07 1.13.11 1.69l.01.08c4.52.71 9.35 1.28 14.42 1.7 2.74.23 5.54.42 8.4.56l-1.28.18c3.83-.55 6.7.48 9.3 2.95.47.45.94.92 1.4 1.47 1.22 1.4 2.33 2.93 3.58 4.29.24.26.49.52.74.76.45.44.93.85 1.44 1.24l.47.35c.2.14.39.24.59.35 2.87 1.71 5 1.51 6.7.41.19-.12.38-.27.57-.41.27-.21.53-.45.79-.71.38-.38.75-.79 1.11-1.24l.6-.76c1.63-2.15 3.16-4.66 5.18-6.13.41-.3.83-.56 1.28-.76 2.02-.92 4.04-.65 5.9.19l.21.1v-6.35l-.06-1.47.02-.03z"/></g><path fill="#F1F1F1" d="M101.74 61.95c-1.49 0-3.55.14-5.03.5l.42-7.94h15.18c4.89 0 5.74-3.4 5.74-5.11 0-1.7-.85-5.1-5.74-5.1h-19.57c-4.33 0-6.31 2.06-6.45 6.38l-.64 15.74c-.21 4.68 3.12 5.18 4.4 5.18.85 0 1.63-.14 2.7-.35 1.21-.21 2.77-.42 4.89-.42 4.89 0 10.28 1.7 10.28 7.66 0 4.82-3.47 7.3-7.52 7.3-2.62 0-4.82-1.14-6.38-2.77-2.2-2.34-3.4-2.7-4.82-2.7-3.12 0-5.53 2.27-5.53 5.32 0 1.63.85 3.33 1.99 4.54 3.26 3.4 8.79 5.67 14.89 5.67 9.86 0 19.36-5.74 19.36-17.94-.01-10.57-8.1-15.96-18.17-15.96z"/><path fill="#093942" d="M115.61 59.78c5.54-1.33 8.09-6 8.09-10.38 0-5.18-3.56-10.75-11.39-10.75h-19.57c-7.33 0-11.85 4.43-12.1 11.84l-.64 15.7c-.19 4.1 1.38 6.65 2.72 8.05.52.54 1.1 1.02 1.74 1.42-3.84 1.72-6.45 5.49-6.45 9.97 0 2.97 1.28 6.03 3.52 8.41 4.49 4.68 11.58 7.45 19 7.45 17.18 0 25-12.23 25-23.59.01-8.04-3.69-14.44-9.92-18.12zm-15.07 36.06c-6.1 0-11.63-2.27-14.89-5.67-1.13-1.21-1.99-2.91-1.99-4.54 0-3.05 2.41-5.32 5.53-5.32 1.42 0 2.62.35 4.82 2.7 1.56 1.63 3.76 2.77 6.38 2.77 4.04 0 7.52-2.48 7.52-7.3 0-5.96-5.39-7.66-10.28-7.66-2.13 0-3.69.21-4.89.42-1.06.21-1.84.35-2.7.35-1.28 0-4.61-.5-4.4-5.18l.64-15.74c.14-4.33 2.13-6.38 6.45-6.38h19.57c4.89 0 5.74 3.4 5.74 5.1 0 1.7-.85 5.11-5.74 5.11h-15.17l-.42 7.94c1.49-.35 3.55-.5 5.03-.5 10.07 0 18.15 5.39 18.15 15.96.01 12.2-9.49 17.94-19.35 17.94z"/></g></svg>